<svg width="114" height="27" viewBox="0 0 114 27" fill="none" xmlns="http://www.w3.org/2000/svg">
<path d="M0.728 12.746C0.728 11.238 1.03133 9.92067 1.638 8.794C2.262 7.66733 3.12 6.80067 4.212 6.194C5.32133 5.58733 6.58667 5.284 8.008 5.284C9.828 5.284 11.3447 5.76067 12.558 6.714C13.7887 7.66733 14.5947 9.01067 14.976 10.744H10.244C9.84533 9.63467 9.074 9.08 7.93 9.08C7.11533 9.08 6.46533 9.40067 5.98 10.042C5.49467 10.666 5.252 11.5673 5.252 12.746C5.252 13.9247 5.49467 14.8347 5.98 15.476C6.46533 16.1 7.11533 16.412 7.93 16.412C9.074 16.412 9.84533 15.8573 10.244 14.748H14.976C14.5947 16.4467 13.7887 17.7813 12.558 18.752C11.3273 19.7227 9.81067 20.208 8.008 20.208C6.58667 20.208 5.32133 19.9047 4.212 19.298C3.12 18.6913 2.262 17.8247 1.638 16.698C1.03133 15.5713 0.728 14.254 0.728 12.746ZM26.4022 5.336C28.0662 5.336 29.4009 5.89067 30.4062 7C31.4115 8.092 31.9142 9.6 31.9142 11.524V20H27.4942V12.122C27.4942 11.1513 27.2429 10.3973 26.7402 9.86C26.2375 9.32267 25.5615 9.054 24.7122 9.054C23.8629 9.054 23.1869 9.32267 22.6842 9.86C22.1815 10.3973 21.9302 11.1513 21.9302 12.122V20H17.4842V0.76H21.9302V7.442C22.3809 6.80067 22.9962 6.28933 23.7762 5.908C24.5562 5.52667 25.4315 5.336 26.4022 5.336ZM34.2497 12.72C34.2497 11.2293 34.5271 9.92067 35.0817 8.794C35.6537 7.66733 36.4251 6.80067 37.3957 6.194C38.3664 5.58733 39.4497 5.284 40.6457 5.284C41.6684 5.284 42.5611 5.492 43.3237 5.908C44.1037 6.324 44.7017 6.87 45.1177 7.546V5.492H49.5637V20H45.1177V17.946C44.6844 18.622 44.0777 19.168 43.2977 19.584C42.5351 20 41.6424 20.208 40.6197 20.208C39.4411 20.208 38.3664 19.9047 37.3957 19.298C36.4251 18.674 35.6537 17.7987 35.0817 16.672C34.5271 15.528 34.2497 14.2107 34.2497 12.72ZM45.1177 12.746C45.1177 11.6367 44.8057 10.7613 44.1817 10.12C43.5751 9.47867 42.8297 9.158 41.9457 9.158C41.0617 9.158 40.3077 9.47867 39.6837 10.12C39.0771 10.744 38.7737 11.6107 38.7737 12.72C38.7737 13.8293 39.0771 14.7133 39.6837 15.372C40.3077 16.0133 41.0617 16.334 41.9457 16.334C42.8297 16.334 43.5751 16.0133 44.1817 15.372C44.8057 14.7307 45.1177 13.8553 45.1177 12.746ZM60.9962 16.23V20H58.7342C57.1222 20 55.8655 19.61 54.9642 18.83C54.0629 18.0327 53.6122 16.7413 53.6122 14.956V9.184H51.8442V5.492H53.6122V1.956H58.0582V5.492H60.9702V9.184H58.0582V15.008C58.0582 15.4413 58.1622 15.7533 58.3702 15.944C58.5782 16.1347 58.9249 16.23 59.4102 16.23H60.9962Z" fill="#FD8D81"/>
<path d="M63.2387 12.876C63.2387 11.42 63.5247 10.146 64.0967 9.054C64.686 7.94467 65.492 7.09533 66.5147 6.506C67.5547 5.89933 68.7247 5.596 70.0247 5.596C71.3767 5.596 72.538 5.908 73.5087 6.532C74.4967 7.156 75.2074 7.95333 75.6407 8.924V5.804H77.4607V20H75.6407V16.854C75.19 17.8247 74.4707 18.6307 73.4827 19.272C72.512 19.896 71.3507 20.208 69.9987 20.208C68.716 20.208 67.5547 19.9047 66.5147 19.298C65.492 18.6913 64.686 17.8333 64.0967 16.724C63.5247 15.6147 63.2387 14.332 63.2387 12.876ZM75.6407 12.902C75.6407 11.758 75.4067 10.7527 74.9387 9.886C74.4707 9.01933 73.8294 8.352 73.0147 7.884C72.2174 7.416 71.3334 7.182 70.3627 7.182C69.3574 7.182 68.456 7.40733 67.6587 7.858C66.8614 8.30867 66.2287 8.96733 65.7607 9.834C65.31 10.6833 65.0847 11.6973 65.0847 12.876C65.0847 14.0373 65.31 15.06 65.7607 15.944C66.2287 16.8107 66.8614 17.478 67.6587 17.946C68.456 18.3967 69.3574 18.622 70.3627 18.622C71.3334 18.622 72.2174 18.388 73.0147 17.92C73.8294 17.452 74.4707 16.7847 74.9387 15.918C75.4067 15.0513 75.6407 14.046 75.6407 12.902ZM83.5396 8.924C83.9903 7.97067 84.701 7.182 85.6716 6.558C86.6596 5.91667 87.8296 5.596 89.1816 5.596C90.4643 5.596 91.617 5.89933 92.6396 6.506C93.6796 7.09533 94.4856 7.94467 95.0576 9.054C95.647 10.146 95.9416 11.42 95.9416 12.876C95.9416 14.332 95.647 15.6147 95.0576 16.724C94.4856 17.8333 93.6796 18.6913 92.6396 19.298C91.617 19.9047 90.4643 20.208 89.1816 20.208C87.847 20.208 86.6856 19.896 85.6976 19.272C84.7096 18.6307 83.9903 17.8333 83.5396 16.88V26.708H81.7456V5.804H83.5396V8.924ZM94.0956 12.876C94.0956 11.6973 93.8616 10.6833 93.3936 9.834C92.943 8.96733 92.319 8.30867 91.5216 7.858C90.7243 7.40733 89.823 7.182 88.8176 7.182C87.847 7.182 86.9543 7.416 86.1396 7.884C85.3423 8.352 84.7096 9.01933 84.2416 9.886C83.7736 10.7527 83.5396 11.758 83.5396 12.902C83.5396 14.046 83.7736 15.0513 84.2416 15.918C84.7096 16.7847 85.3423 17.452 86.1396 17.92C86.9543 18.388 87.847 18.622 88.8176 18.622C89.823 18.622 90.7243 18.3967 91.5216 17.946C92.319 17.478 92.943 16.8107 93.3936 15.944C93.8616 15.06 94.0956 14.0373 94.0956 12.876ZM101.215 8.924C101.665 7.97067 102.376 7.182 103.347 6.558C104.335 5.91667 105.505 5.596 106.857 5.596C108.139 5.596 109.292 5.89933 110.315 6.506C111.355 7.09533 112.161 7.94467 112.733 9.054C113.322 10.146 113.617 11.42 113.617 12.876C113.617 14.332 113.322 15.6147 112.733 16.724C112.161 17.8333 111.355 18.6913 110.315 19.298C109.292 19.9047 108.139 20.208 106.857 20.208C105.522 20.208 104.361 19.896 103.373 19.272C102.385 18.6307 101.665 17.8333 101.215 16.88V26.708H99.4205V5.804H101.215V8.924ZM111.771 12.876C111.771 11.6973 111.537 10.6833 111.069 9.834C110.618 8.96733 109.994 8.30867 109.197 7.858C108.399 7.40733 107.498 7.182 106.493 7.182C105.522 7.182 104.629 7.416 103.815 7.884C103.017 8.352 102.385 9.01933 101.917 9.886C101.449 10.7527 101.215 11.758 101.215 12.902C101.215 14.046 101.449 15.0513 101.917 15.918C102.385 16.7847 103.017 17.452 103.815 17.92C104.629 18.388 105.522 18.622 106.493 18.622C107.498 18.622 108.399 18.3967 109.197 17.946C109.994 17.478 110.618 16.8107 111.069 15.944C111.537 15.06 111.771 14.0373 111.771 12.876Z" fill="#3639A4"/>
</svg>
