<svg width="167" height="29" viewBox="0 0 167 29" fill="none" xmlns="http://www.w3.org/2000/svg">
<g clip-path="url(#clip0)">
<path d="M26.3629 9.92791L17.6175 9.1168L14.1436 1.05009C13.9004 0.485256 13.0995 0.485256 12.8563 1.05009L9.38244 9.11685L0.63703 9.92791C0.0246793 9.9847 -0.222803 10.7463 0.239202 11.1522L6.83764 16.9488L4.90661 25.5169C4.7714 26.1168 5.41929 26.5875 5.94806 26.2735L13.5 21.7893L21.0519 26.2735C21.5807 26.5875 22.2286 26.1168 22.0934 25.5169L20.1623 16.9488L26.7608 11.1522C27.2228 10.7463 26.9753 9.9847 26.3629 9.92791Z" fill="#FFA196"/>
<path d="M14.1436 1.05009C13.9004 0.485256 13.0995 0.485256 12.8563 1.05009L9.38242 9.11685L0.637029 9.92791C0.0246792 9.9847 -0.222802 10.7463 0.239202 11.1522L6.83763 16.9488L4.9066 25.5169C4.77139 26.1168 5.41929 26.5875 5.94805 26.2735L7.6336 25.2727C7.86689 15.6697 12.3287 8.90724 15.8613 5.0387L14.1436 1.05009Z" fill="#FF7363"/>
</g>
<g clip-path="url(#clip1)">
<path d="M131.363 10.9279L122.618 10.1168L119.144 2.05009C118.9 1.48526 118.1 1.48526 117.856 2.05009L114.382 10.1169L105.637 10.9279C105.025 10.9847 104.777 11.7463 105.239 12.1522L111.838 17.9488L109.907 26.5169C109.771 27.1168 110.419 27.5875 110.948 27.2735L118.5 22.7893L126.052 27.2735C126.581 27.5875 127.229 27.1168 127.093 26.5169L125.162 17.9488L131.761 12.1522C132.223 11.7463 131.975 10.9847 131.363 10.9279Z" fill="#FFA196"/>
<path d="M119.144 2.05009C118.9 1.48526 118.1 1.48526 117.856 2.05009L114.382 10.1169L105.637 10.9279C105.025 10.9847 104.777 11.7463 105.239 12.1522L111.838 17.9488L109.907 26.5169C109.771 27.1168 110.419 27.5875 110.948 27.2735L112.634 26.2727C112.867 16.6697 117.329 9.90724 120.861 6.0387L119.144 2.05009Z" fill="#FF7363"/>
</g>
<g clip-path="url(#clip2)">
<path d="M61.363 9.92791L52.6175 9.1168L49.1436 1.05009C48.9004 0.485256 48.0995 0.485256 47.8563 1.05009L44.3825 9.11685L35.637 9.92791C35.0247 9.9847 34.7772 10.7463 35.2392 11.1522L41.8377 16.9488L39.9066 25.5169C39.7714 26.1168 40.4193 26.5875 40.9481 26.2735L48.5 21.7893L56.0519 26.2735C56.5807 26.5875 57.2286 26.1168 57.0934 25.5169L55.1623 16.9488L61.7608 11.1522C62.2228 10.7463 61.9753 9.9847 61.363 9.92791Z" fill="#FFA196"/>
<path d="M49.1436 1.05009C48.9004 0.485256 48.0995 0.485256 47.8563 1.05009L44.3824 9.11685L35.637 9.92791C35.0247 9.9847 34.7772 10.7463 35.2392 11.1522L41.8376 16.9488L39.9066 25.5169C39.7714 26.1168 40.4193 26.5875 40.9481 26.2735L42.6336 25.2727C42.8669 15.6697 47.3288 8.90724 50.8613 5.0387L49.1436 1.05009Z" fill="#FF7363"/>
</g>
<g clip-path="url(#clip3)">
<path d="M166.363 11.9279L157.618 11.1168L154.144 3.05009C153.9 2.48526 153.1 2.48526 152.856 3.05009L149.382 11.1169L140.637 11.9279C140.025 11.9847 139.777 12.7463 140.239 13.1522L146.838 18.9488L144.907 27.5169C144.771 28.1168 145.419 28.5875 145.948 28.2735L153.5 23.7893L161.052 28.2735C161.581 28.5875 162.229 28.1168 162.093 27.5169L160.162 18.9488L166.761 13.1522C167.223 12.7463 166.975 11.9847 166.363 11.9279Z" fill="#FFA196"/>
<path d="M154.144 3.05009C153.9 2.48526 153.1 2.48526 152.856 3.05009L149.382 11.1169L140.637 11.9279C140.025 11.9847 139.777 12.7463 140.239 13.1522L146.838 18.9488L144.907 27.5169C144.771 28.1168 145.419 28.5875 145.948 28.2735L147.634 27.2727C147.867 17.6697 152.329 10.9072 155.861 7.0387L154.144 3.05009Z" fill="#FF7363"/>
</g>
<g clip-path="url(#clip4)">
<path d="M96.363 11.9279L87.6175 11.1168L84.1436 3.05009C83.9004 2.48526 83.0995 2.48526 82.8563 3.05009L79.3825 11.1169L70.637 11.9279C70.0247 11.9847 69.7772 12.7463 70.2392 13.1522L76.8377 18.9488L74.9066 27.5169C74.7714 28.1168 75.4193 28.5875 75.9481 28.2735L83.5 23.7893L91.0519 28.2735C91.5807 28.5875 92.2286 28.1168 92.0934 27.5169L90.1623 18.9488L96.7608 13.1522C97.2228 12.7463 96.9753 11.9847 96.363 11.9279Z" fill="#FFA196"/>
<path d="M84.1436 3.05009C83.9004 2.48526 83.0995 2.48526 82.8563 3.05009L79.3824 11.1169L70.637 11.9279C70.0247 11.9847 69.7772 12.7463 70.2392 13.1522L76.8376 18.9488L74.9066 27.5169C74.7714 28.1168 75.4193 28.5875 75.9481 28.2735L77.6336 27.2727C77.8669 17.6697 82.3288 10.9072 85.8613 7.0387L84.1436 3.05009Z" fill="#FF7363"/>
</g>
<defs>
<clipPath id="clip0">
<rect width="27" height="27" fill="white"/>
</clipPath>
<clipPath id="clip1">
<rect x="105" y="1" width="27" height="27" fill="white"/>
</clipPath>
<clipPath id="clip2">
<rect x="35" width="27" height="27" fill="white"/>
</clipPath>
<clipPath id="clip3">
<rect x="140" y="2" width="27" height="27" fill="white"/>
</clipPath>
<clipPath id="clip4">
<rect x="70" y="2" width="27" height="27" fill="white"/>
</clipPath>
</defs>
</svg>
